<svg width="25" height="25" viewBox="0 0 25 25" fill="none" xmlns="http://www.w3.org/2000/svg">
<path fill-rule="evenodd" clip-rule="evenodd" d="M7.20852 0.767931C8.51642 0.710164 8.93344 0.697327 12.2651 0.697327C15.5967 0.697327 16.0137 0.711234 17.3205 0.767931C18.6273 0.824629 19.5193 1.02468 20.2998 1.31458C21.1171 1.61091 21.8586 2.07412 22.4718 2.67319C23.0963 3.26049 23.5779 3.97082 23.8857 4.75603C24.189 5.50487 24.3964 6.36069 24.4566 7.61232C24.5168 8.8693 24.5302 9.26939 24.5302 12.4648C24.5302 15.6613 24.5157 16.0614 24.4566 17.3162C24.3975 18.5678 24.189 19.4236 23.8857 20.1725C23.5779 20.9578 23.0955 21.6693 22.4718 22.2575C21.8586 22.8565 21.1171 23.3187 20.2998 23.6139C19.5193 23.9049 18.6273 24.1039 17.3227 24.1616C16.0137 24.2194 15.5967 24.2323 12.2651 24.2323C8.93344 24.2323 8.51642 24.2183 7.20852 24.1616C5.90396 24.1049 5.01196 23.9049 4.23145 23.6139C3.41295 23.3186 2.67136 22.8557 2.0583 22.2575C1.43432 21.6698 0.951452 20.9586 0.643359 20.1735C0.341192 19.4247 0.133801 18.5689 0.0735904 17.3173C0.0133801 16.0603 0 15.6602 0 12.4648C0 9.26832 0.0144951 8.86823 0.0735904 7.61446C0.132686 6.36069 0.341192 5.50487 0.643359 4.75603C0.951907 3.97091 1.43515 3.25976 2.05942 2.67212C2.6716 2.07359 3.41245 1.61031 4.23034 1.31458C5.01084 1.02468 5.90285 0.825699 7.20741 0.767931H7.20852ZM17.2213 2.88607C15.9279 2.82938 15.5399 2.81761 12.2651 2.81761C8.9903 2.81761 8.60228 2.82938 7.30887 2.88607C6.11247 2.93849 5.46353 3.12998 5.03091 3.29152C4.45891 3.50547 4.04971 3.75901 3.62043 4.17087C3.2135 4.55069 2.90033 5.01308 2.70389 5.52413C2.53553 5.9392 2.33594 6.5618 2.2813 7.70966C2.22221 8.9506 2.20994 9.32288 2.20994 12.4648C2.20994 15.6067 2.22221 15.979 2.2813 17.2199C2.33594 18.3678 2.53553 18.9904 2.70389 19.4055C2.90013 19.9157 3.21345 20.3789 3.62043 20.7587C4.01625 21.1492 4.49905 21.4498 5.03091 21.6381C5.46353 21.7996 6.11247 21.9911 7.30887 22.0435C8.60228 22.1002 8.98919 22.112 12.2651 22.112C15.541 22.112 15.9279 22.1002 17.2213 22.0435C18.4177 21.9911 19.0666 21.7996 19.4992 21.6381C20.0712 21.4241 20.4804 21.1706 20.9097 20.7587C21.3167 20.3789 21.63 19.9157 21.8263 19.4055C21.9946 18.9904 22.1942 18.3678 22.2488 17.2199C22.3079 15.979 22.3202 15.6067 22.3202 12.4648C22.3202 9.32288 22.3079 8.9506 22.2488 7.70966C22.1942 6.5618 21.9946 5.9392 21.8263 5.52413C21.6033 4.97533 21.339 4.58273 20.9097 4.17087C20.5138 3.78048 20.0319 3.48002 19.4992 3.29152C19.0666 3.12998 18.4177 2.93849 17.2213 2.88607ZM10.6985 16.0924C11.5734 16.4418 12.5476 16.489 13.4547 16.2258C14.3618 15.9626 15.1456 15.4055 15.6721 14.6495C16.1986 13.8935 16.4353 12.9856 16.3416 12.0809C16.2479 11.1761 15.8298 10.3306 15.1585 9.68874C14.7306 9.27846 14.2132 8.9643 13.6436 8.76889C13.074 8.57348 12.4663 8.50168 11.8642 8.55865C11.2622 8.61562 10.6808 8.79995 10.162 9.09836C9.64309 9.39678 9.19964 9.80186 8.86353 10.2844C8.52742 10.767 8.30701 11.3151 8.21818 11.8892C8.12934 12.4633 8.17428 13.0492 8.34977 13.6046C8.52526 14.1601 8.82693 14.6713 9.23306 15.1015C9.63919 15.5316 10.1397 15.8701 10.6985 16.0924ZM7.80728 8.18785C8.39268 7.6262 9.08766 7.18067 9.85253 6.8767C10.6174 6.57274 11.4372 6.41629 12.2651 6.41629C13.093 6.41629 13.9127 6.57273 14.6776 6.8767C15.4425 7.18067 16.1375 7.6262 16.7229 8.18785C17.3083 8.74951 17.7726 9.41629 18.0895 10.1501C18.4063 10.884 18.5694 11.6705 18.5694 12.4648C18.5694 13.2591 18.4063 14.0456 18.0895 14.7795C17.7726 15.5133 17.3083 16.1801 16.7229 16.7417C15.5406 17.876 13.9371 18.5133 12.2651 18.5133C10.5931 18.5133 8.98956 17.876 7.80728 16.7417C6.625 15.6074 5.9608 14.069 5.9608 12.4648C5.9608 10.8606 6.625 9.32217 7.80728 8.18785ZM19.9675 7.31706C20.1126 7.18577 20.2287 7.02788 20.3091 6.85275C20.3894 6.67762 20.4323 6.48881 20.4352 6.29749C20.4381 6.10618 20.401 5.91625 20.326 5.73895C20.251 5.56165 20.1397 5.40058 19.9987 5.26528C19.8577 5.12999 19.6898 5.02321 19.505 4.95128C19.3202 4.87935 19.1223 4.84373 18.9229 4.84652C18.7235 4.84931 18.5267 4.89045 18.3441 4.96752C18.1616 5.04459 17.997 5.15601 17.8602 5.2952C17.594 5.56588 17.4483 5.92542 17.454 6.29749C17.4596 6.66957 17.6162 7.02488 17.8905 7.28801C18.1647 7.55113 18.535 7.70135 18.9229 7.70678C19.3107 7.7122 19.6854 7.5724 19.9675 7.31706Z" fill="#8D18B6"/>
</svg>
