<svg width="30" height="30" viewBox="0 0 30 30" fill="none" xmlns="http://www.w3.org/2000/svg">
<path d="M10.9277 11.0589C9.58627 12.1852 9.0947 14.2392 10.253 15.8871C11.3369 17.4291 12.7022 18.7779 14.2624 19.8485C15.9301 20.9928 18.0087 20.5069 19.1484 19.1813L19.1611 19.1871C20.6168 19.8535 22.163 20.3102 23.75 20.5429V23.8034L23.7486 23.8034L23.7451 23.8034C13.7769 23.8174 6.23934 16.2827 6.25001 6.51559V6.51116H9.54921L9.54943 6.5126C9.785 8.08062 10.247 9.60714 10.9214 11.0455L10.9277 11.0589ZM23.7486 26.2737H25C25.6904 26.2737 26.25 25.7207 26.25 25.0386V19.4776C26.25 18.8654 25.7963 18.3456 25.1835 18.2558L24.1158 18.0992C22.7654 17.9012 21.4507 17.5127 20.2119 16.9456L19.2708 16.5149C18.7255 16.2652 18.0775 16.4345 17.7282 16.9177L17.3022 17.5071C16.9288 18.0237 16.216 18.1814 15.6883 17.8194C14.3729 16.9168 13.2201 15.7779 12.3063 14.4778C11.9398 13.9564 12.0994 13.2519 12.6223 12.883L13.2185 12.4623C13.7076 12.1171 13.8789 11.4768 13.6262 10.9379L13.1898 10.0071C12.6159 8.78312 12.2228 7.48415 12.0223 6.14986L11.8638 5.09462C11.7728 4.48915 11.2468 4.04083 10.6273 4.04083H5.00001C4.30966 4.04083 3.75001 4.59383 3.75001 5.276V6.51293C3.73786 17.6373 12.3878 26.2897 23.7486 26.2737Z" fill="#8D18B6"/>
</svg>
