<svg width="24" height="25" viewBox="0 0 24 25" fill="none" xmlns="http://www.w3.org/2000/svg">
<path d="M11.9531 24.5246C18.4922 24.5246 23.9062 19.1632 23.9062 12.7133C23.9062 6.2519 18.4805 0.9021 11.9414 0.9021C5.41406 0.9021 0 6.2519 0 12.7133C0 19.1632 5.42578 24.5246 11.9531 24.5246ZM8.68359 10.4785C8.63672 10.0269 8.4375 9.62158 8.12109 9.33209C9.15234 6.74983 10.793 4.41073 12.9375 2.52325C13.1016 2.53483 13.2656 2.55799 13.4297 2.58115C11.8945 5.14025 10.9688 8.01201 10.7461 10.988C10.043 10.8722 9.35156 10.6985 8.68359 10.4785ZM3.28125 7.15511C4.95703 4.63075 7.73438 2.84748 10.8984 2.52325C9.11719 4.36442 7.73438 6.50665 6.79688 8.83416C6.46875 8.83416 6.11719 8.94996 5.8125 9.14681C4.89844 8.59099 4.04297 7.91937 3.28125 7.15511ZM14.1445 7.29407C14.1562 8.34782 14.2852 9.38999 14.5312 10.3974C14.3203 10.6058 14.168 10.8722 14.0859 11.1617C13.793 11.1848 13.5 11.1964 13.1953 11.1964C12.8438 11.1964 12.4922 11.1848 12.1523 11.1617C12.3516 8.32466 13.2305 5.61502 14.6953 3.21803C14.3086 4.52653 14.1328 5.89293 14.1445 7.29407ZM15.5625 7.28249C15.5508 5.95083 15.7383 4.61917 16.1367 3.36857C18.4336 4.38758 20.3086 6.22874 21.3633 8.48677C20.1328 9.41315 18.75 10.1079 17.2734 10.5711C16.957 10.1427 16.4414 9.86475 15.8555 9.85317C15.6797 9.01944 15.5742 8.16254 15.5625 7.28249ZM1.59375 12.7133C1.59375 11.1964 1.93359 9.76054 2.55469 8.45203C3.31641 9.16997 4.14844 9.80685 5.05078 10.3395C5.02734 10.4322 5.02734 10.5364 5.02734 10.6406C5.02734 11.2543 5.33203 11.7986 5.8125 12.1344C5.56641 13.3386 5.4375 14.5893 5.4375 15.8514C4.08984 15.203 2.80078 14.3808 1.61719 13.3965C1.60547 13.165 1.59375 12.9449 1.59375 12.7133ZM22.3125 12.7133C22.3125 13.7092 22.1602 14.6819 21.8789 15.5967C21.1992 15.9556 20.4961 16.2683 19.7695 16.5346C18.6445 15.5272 17.707 14.3229 17.0039 12.9913C17.3203 12.7249 17.5312 12.3544 17.6133 11.9375C19.1367 11.4743 20.5781 10.7795 21.8906 9.85317C22.1602 10.768 22.3125 11.7291 22.3125 12.7133ZM10.6875 12.4702C10.6875 13.9755 10.8633 15.4577 11.2031 16.9052C11.0039 17.0557 10.8398 17.2526 10.7227 17.4726C9.41016 17.2757 8.10938 16.9399 6.85547 16.4652C6.82031 15.0872 6.92578 13.7324 7.19531 12.4239C7.61719 12.3428 7.98047 12.1228 8.25 11.8101C9.03516 12.0765 9.85547 12.2733 10.6875 12.4007C10.6875 12.4239 10.6875 12.447 10.6875 12.4702ZM13.1953 12.5976C13.5703 12.5976 13.9336 12.586 14.2852 12.5512C14.5664 13.0144 15.0586 13.3386 15.6328 13.4081C16.3008 14.7398 17.1914 15.9672 18.2578 17.021C16.875 17.4031 15.4688 17.6115 14.0508 17.6579C13.8047 17.0441 13.2422 16.6041 12.5625 16.5231C12.2695 15.2377 12.1055 13.9061 12.1055 12.5628C12.4688 12.586 12.832 12.5976 13.1953 12.5976ZM1.98047 15.4577C3.08203 16.2336 4.25391 16.8936 5.48438 17.4147C5.53125 18.6537 5.71875 19.8812 6.04688 21.0854C4.10156 19.7306 2.63672 17.7505 1.98047 15.4577ZM11.9531 22.9498C10.5117 22.9498 9.11719 22.6487 7.86328 22.0929C7.37109 20.7728 7.05469 19.3948 6.9375 17.9821C8.13281 18.3874 9.35156 18.6884 10.6055 18.8621C10.8281 19.5685 11.4844 20.078 12.2695 20.1127C12.668 21.0391 13.1484 21.9423 13.6992 22.7992C13.125 22.8919 12.5508 22.9498 11.9531 22.9498ZM13.6055 19.6264C13.7695 19.4643 13.9102 19.2674 14.0039 19.059C15.8555 19.0011 17.707 18.7 19.4883 18.121C19.7461 18.3295 20.0273 18.5263 20.2969 18.7232C19.0195 20.437 17.2266 21.7571 15.1406 22.4403C14.543 21.5486 14.0273 20.5991 13.6055 19.6264Z" fill="#8D18B6"/>
</svg>
